# xmcd
#
# Track frame offsets:
#	150
#	13112
#	27347
#	42282
#	56700
#	73640
#	87047
#	100237
#	117732
#	132527
#
# Disc length: 2005 seconds
#
# Revision: 2
# Processed by: cddbd v1.5.1PL0 Copyright (c) Steve Scherf et al.
# Submitted via: audiograbber 1.83.01
#
DISCID=8c07d30a
DTITLE=Victoria SHAW - Victoria Shaw
DYEAR=1997
DGENRE=Country
TTITLE0=Just To Say We Did
TTITLE1=Different Drum
TTITLE2=In Spite Of It All
TTITLE3=Let's Talk About Me
TTITLE4=All For The Sake Of Love
TTITLE5=Stuck On You
TTITLE6=Wild Rose
TTITLE7=Don't Move
TTITLE8=One Of Those Days
TTITLE9=I Say The Grace
EXTD=
EXTT0=
EXTT1=
EXTT2=
EXTT3=
EXTT4=
EXTT5=
EXTT6=
EXTT7=
EXTT8=
EXTT9=
PLAYORDER=
